<svg width="649" height="1760" fill="none" xmlns="http://www.w3.org/2000/svg"><path d="M12.866 548.224V1757.68M471.875 599.225V1743.1M133.082 850.587v881.593M322.514 872.445v837.875M318.872 872.445V677.75v-34.81-12.75c0-18.263 144.358-5.568 153.003-5.465M136.725 843.301c0-84.503-17.555-168.781-54.846-245.695-4.192-8.646-21.81-63.106-36.227-63.954-21.148-1.244-24.139 6.264-40.072 18.215" stroke="#000" stroke-width="3" stroke-linecap="round"/><path d="M12.866 548.224c1.315-11.841 37.292-25.88 46.143-30.965 37.603-21.601 82.939-30.601 125.884-30.965 37.958-.322 77.868-3.05 115.562 2.024 38.611 5.198 69.533 19.825 105.645 32.179 21.911 7.496 43.621 14.936 64.965 24.084 11.653 4.994 8.096 16.391 8.096 27.322v27.322c0 11.872-10.81 18.096-18.215 25.5" stroke="#000" stroke-width="3" stroke-linecap="round"/><path d="M1.937 544.581c65.417 17.316 129.423 42.077 196.515 52.62 62.56 9.831 124.23 12.953 187.409 12.953 29.145 0 61.424-9.411 89.656 0" stroke="#000" stroke-width="3" stroke-linecap="round"/><path d="M5.58 548.224c0-53.794.64-108.342 5.262-161.908 4.332-50.209 10.974-101.211 22.06-150.372 6.518-28.91 20.877-59.024 23.679-88.442 1.894-19.887 2.784-45.935 8.095-64.764 7.54-26.734 2.943-58 29.953-66.382C149.696-.734 214.29 2.231 271.513 1.784c88.198-.689 179.191 14.457 265.53 31.168 21.624 4.185 42.824 8.654 63.548 16.19 4.82 1.753 11.37 18.47 14.167 22.667 23.024 34.535 31.977 78.709 31.977 119.61 0 39.648-9.967 74.023-23.881 110.705-10.852 28.609-34.905 49.173-47.156 76.501-10.821 24.14-17.546 50.076-31.167 73.061-6.064 10.233-16.503 19.102-20.846 30.156-2.481 6.316-3.089 12.63-8.298 17.405-23.606 21.639-32.699 56.151-58.084 76.096-12.901 10.137-7.286 37.405-7.286 53.025" stroke="#000" stroke-width="3" stroke-linecap="round"/></svg>