<svg width="649" height="1760" viewBox="0 0 649 1760" fill="none" xmlns="http://www.w3.org/2000/svg">
<path d="M12.8655 548.224V1757.68" stroke="black" stroke-width="3" stroke-linecap="round"/>
<path d="M471.875 599.225V1743.1" stroke="black" stroke-width="3" stroke-linecap="round"/>
<path d="M133.082 850.587V1732.18" stroke="black" stroke-width="3" stroke-linecap="round"/>
<path d="M322.514 872.445V1710.32" stroke="black" stroke-width="3" stroke-linecap="round"/>
<path d="M318.872 872.445C318.872 807.547 318.872 742.648 318.872 677.75C318.872 666.147 318.872 654.543 318.872 642.94C318.872 638.69 318.872 634.44 318.872 630.19C318.872 611.927 463.23 624.622 471.875 624.725" stroke="black" stroke-width="3" stroke-linecap="round"/>
<path d="M136.725 843.301C136.725 758.798 119.17 674.52 81.8787 597.606C77.6871 588.96 60.069 534.5 45.6518 533.652C24.5036 532.408 21.5133 539.916 5.57959 551.867" stroke="black" stroke-width="3" stroke-linecap="round"/>
<path d="M12.8655 548.224C14.1811 536.383 50.1576 522.344 59.0093 517.259C96.6116 495.658 141.948 486.658 184.893 486.294C222.851 485.972 262.761 483.244 300.455 488.318C339.066 493.516 369.988 508.143 406.1 520.497C428.011 527.993 449.721 535.433 471.065 544.581C482.718 549.575 479.161 560.972 479.161 571.903C479.161 581.01 479.161 590.118 479.161 599.225C479.161 611.097 468.351 617.321 460.946 624.725" stroke="black" stroke-width="3" stroke-linecap="round"/>
<path d="M1.93652 544.581C67.3543 561.897 131.36 586.658 198.452 597.201C261.012 607.032 322.682 610.154 385.861 610.154C415.006 610.154 447.285 600.743 475.517 610.154" stroke="black" stroke-width="3" stroke-linecap="round"/>
<path d="M5.57959 548.224C5.57959 494.43 6.21917 439.882 10.8416 386.316C15.1743 336.107 21.8162 285.105 32.9016 235.944C39.4204 207.034 53.7788 176.92 56.5806 147.502C58.4746 127.615 59.3652 101.567 64.676 82.7383C72.2166 56.0035 67.619 24.7385 94.629 16.356C149.696 -0.733844 214.29 2.23138 271.513 1.78433C359.711 1.09528 450.704 16.2409 537.043 32.9516C558.667 37.137 579.867 41.6061 600.591 49.1424C605.411 50.8949 611.961 67.6129 614.758 71.8095C637.782 106.344 646.735 150.518 646.735 191.419C646.735 231.067 636.768 265.442 622.854 302.124C612.002 330.733 587.949 351.297 575.698 378.625C564.877 402.765 558.152 428.701 544.531 451.686C538.467 461.919 528.028 470.788 523.685 481.842C521.204 488.158 520.596 494.472 515.387 499.247C491.781 520.886 482.688 555.398 457.303 575.343C444.402 585.48 450.017 612.748 450.017 628.368" stroke="black" stroke-width="3" stroke-linecap="round"/>
</svg>
